Coordinates
version=1
nRows=17
nColumns=36
inDegrees=yes

Units are S.I. units (second, meters, Newtons, ...)
If the header above contains a line with 'inDegrees', this indicates whether rotational values are in degrees (yes) or radians (no).

endheader
time	pelvis_tilt	pelvis_list	pelvis_rotation	pelvis_tx	pelvis_ty	pelvis_tz	hip_flexion_r	hip_adduction_r	hip_rotation_r	knee_angle_r	knee_angle_r_beta	ankle_angle_r	subtalar_angle_r	mtp_angle_r	hip_flexion_l	hip_adduction_l	hip_rotation_l	knee_angle_l	knee_angle_l_beta	ankle_angle_l	subtalar_angle_l	mtp_angle_l	lumbar_extension	lumbar_bending	lumbar_rotation	arm_flex_r	arm_add_r	arm_rot_r	elbow_flex_r	pro_sup_r	arm_flex_l	arm_add_l	arm_rot_l	elbow_flex_l	pro_sup_l
      2.42916670	    -29.46473142	     -0.29731302	     -3.31453106	      0.15770781	      0.69350136	     -0.04598019	     94.75861430	    -13.58109287	     -1.49727818	    103.17086449	      1.80067128	     35.95710713	      8.28635670	     -7.49999987	     97.24968207	    -13.42885069	      1.68805937	    104.83717930	      1.82975396	     35.33152998	      6.21259646	     -7.49999987	    -30.60485991	      1.31377264	      1.44365764	     86.56345897	     -5.25629502	     23.99321998	    103.92998413	     95.21161396	     87.28472628	     -2.05047673	     28.82160706	    102.36409268	     88.87890489
      2.43333330	    -29.34617135	     -0.10171735	     -3.48933019	      0.15668279	      0.70147607	     -0.04310001	     93.72889711	    -13.49811943	     -1.66096304	    102.00442455	      1.78031306	     35.71193740	      8.32020842	     -7.49999987	     96.05903860	    -13.53897530	      1.17857903	    103.71234542	      1.81012190	     35.21851851	      6.14328615	     -7.49999987	    -30.39638943	      1.03278427	      1.57082426	     85.02974339	     -5.68654460	     23.90926697	    103.07247792	     95.21868047	     85.58343259	     -2.13778650	     28.41678908	    101.01671488	     88.61386429
      2.43750000	    -29.06242056	      0.08121708	     -3.66601819	      0.15830238	      0.71173847	     -0.04301571	     92.48084004	    -13.39392755	     -1.89485502	    100.74736175	      1.75837318	     35.46360140	      8.38675100	     -7.49999987	     94.59494046	    -13.70716283	      0.64032205	    102.39131581	      1.78706559	     34.97666036	      6.20445971	     -7.49999987	    -30.46915335	      0.72763266	      1.64405007	     83.37184774	     -6.06727345	     24.04636644	    101.99592938	     92.96759506	     83.89738991	     -2.38860945	     28.44579029	     99.88203934	     86.13745378
      2.44166670	    -28.80239662	      0.27369572	     -3.81781527	      0.15684317	      0.71866881	     -0.04460979	     91.42448043	    -13.33819297	     -2.02559968	     99.50939188	      1.73676652	     34.99993423	      8.32386296	     -7.49999987	     93.37065885	    -13.66493212	      0.22197793	    101.15021192	      1.76540424	     34.62623393	      5.94238628	     -7.49999987	    -30.56226935	      0.43257044	      1.59167594	     81.80755551	     -6.65745050	     24.03514664	    101.59224750	     91.94930134	     82.39583202	     -2.41722438	     28.43305873	     99.27130637	     84.84658410
      2.44583330	    -28.53025066	      0.40204297	     -3.89773840	      0.16068406	      0.72377585	     -0.04385703	     90.46354105	    -13.32913262	     -2.06856364	     98.56023893	      1.72020068	     34.77103616	      8.20312090	     -7.49999987	     92.29249081	    -13.65311751	     -0.04696634	    100.23976626	      1.74951396	     34.38035495	      5.83569863	     -7.49999987	    -30.46445222	      0.19355856	      1.65016956	     80.02462719	     -7.49091456	     23.90893521	    101.60293154	     91.29063991	     80.67042096	     -2.37353732	     28.38229839	     98.54818319	     83.51327010
      2.45000000	    -28.23463130	      0.47821343	     -3.86558183	      0.16208473	      0.72825067	     -0.04082799	     89.54566002	    -13.33188105	     -2.17419507	     97.78534771	      1.70667628	     34.58241777	      8.03373673	     -7.49999987	     91.31812664	    -13.64799270	     -0.12294041	     99.54416751	      1.73737347	     34.11753977	      5.73009526	     -7.49999987	    -30.15611352	      0.03219742	      1.74868520	     78.30074040	     -8.23598558	     23.89496003	    100.98353318	     90.78514131	     78.93772674	     -2.71568557	     28.50188067	     97.87968129	     82.58362393
      2.45416670	    -27.94764934	      0.48654128	     -3.86332156	      0.16180721	      0.73911503	     -0.03681539	     88.36600446	    -13.00922376	     -2.43284950	     96.61852732	      1.68631142	     34.30276022	      7.80742022	     -7.49999987	     90.15661674	    -13.74428726	     -0.16629693	     98.50305918	      1.71920271	     33.53861085	      5.32258745	     -7.49999987	    -29.84534162	     -0.24297293	      2.00257726	     76.55962331	     -8.80358960	     24.24346572	     99.98801247	     91.08834689	     76.75356705	     -2.92394253	     28.38348546	     96.36912184	     82.29132195
      2.45833330	    -27.71469894	      0.53295462	     -3.88428957	      0.16344768	      0.74467823	     -0.03809752	     87.39102512	    -12.87787192	     -2.72968238	     95.69993610	      1.67027898	     34.00391506	      7.56401335	     -7.49999987	     89.14024518	    -13.82659767	     -0.25876620	     97.59498160	      1.70335376	     33.32426098	      5.32667038	     -7.49999987	    -29.24614822	     -0.43848224	      2.32451906	     74.77248208	     -9.43504240	     24.88123083	     98.33443493	     90.22319261	     74.23329835	     -2.80881022	     28.06499232	     94.12817386	     80.87734210
      2.46250000	    -27.51330134	      0.57590584	     -3.93612423	      0.17108662	      0.75015334	     -0.04042944	     86.38235560	    -12.88744033	     -2.93309579	     94.83472340	      1.65517817	     33.76690948	      7.55497359	     -7.49999987	     88.08012274	    -13.85547397	     -0.44115943	     96.78721146	      1.68925551	     33.20637587	      5.22920496	     -7.49999987	    -28.47128210	     -0.60454930	      2.81602292	     72.20986607	    -10.58610927	     24.41126911	     97.16414642	     90.82354155	     71.64560209	     -2.45533365	     28.43870116	     91.79149779	     78.77816482
      2.46666670	    -27.34895737	      0.66769239	     -3.92984660	      0.16788109	      0.75826586	     -0.03764687	     85.41765094	    -12.76762258	     -3.02293294	     93.80662769	      1.63723451	     33.41787857	      7.24441462	     -7.49999987	     87.12005214	    -13.80969111	     -0.72442875	     95.76134995	      1.67135085	     32.85070409	      5.18352621	     -7.49999987	    -27.96832605	     -0.70734150	      2.90946798	     70.48941305	    -11.43005553	     23.47274095	     95.01733428	     90.62680028	     69.77564301	     -2.60055154	     28.59634949	     90.02009703	     78.37854778
      2.47083330	    -27.21476051	      0.76930244	     -3.90466051	      0.17321589	      0.76074662	     -0.03927265	     84.70014036	    -12.97315459	     -3.11525465	     93.18858913	      1.62644771	     33.15624448	      7.24435195	     -7.49999987	     86.32954730	    -13.74592470	     -1.01764897	     95.03797486	      1.65872558	     32.74006208	      5.28190317	     -7.49999987	    -27.19165174	     -0.64131898	      2.91458132	     68.15831817	    -12.34686299	     22.32108146	     93.36366005	     90.30299395	     67.91566535	     -2.94647661	     28.23813024	     87.73317160	     77.70715736
      2.47500000	    -27.05115276	      0.93954492	     -3.90620481	      0.17424122	      0.76977214	     -0.04172224	     83.84686542	    -13.12534170	     -3.10553814	     92.25489297	      1.61015163	     32.71274810	      7.11055834	     -7.49999987	     85.32094669	    -13.53987633	     -1.47904818	     94.10898039	      1.64251156	     32.48042453	      5.32458627	     -7.49999987	    -26.59200866	     -0.64014204	      3.06528225	     65.78472199	    -13.26306993	     21.25371721	     91.42717448	     89.82671961	     65.82664068	     -2.99938975	     26.98331723	     85.06907745	     76.75862754
      2.47916670	    -26.78147772	      1.15985560	     -4.01643089	      0.17775971	      0.77954902	     -0.04828646	     82.69100947	    -13.39405166	     -3.03507576	     90.99565457	      1.58817378	     32.34882300	      7.47171875	     -7.49999987	     83.95507653	    -13.13625260	     -2.08171305	     92.96757849	      1.62259034	     32.23512549	      5.17972740	     -7.49999987	    -26.34447523	     -0.54031243	      3.01426371	     63.44914599	    -14.20930405	     20.18902911	     89.94919878	     89.30858681	     63.74639077	     -3.48835884	     25.82268596	     82.91543013	     75.56152333
      2.48333330	    -26.57973613	      1.31225325	     -4.15720616	      0.17914697	      0.78886285	     -0.04633366	     81.47888490	    -13.54794052	     -3.11326039	     89.61572101	      1.56408939	     31.88030026	      7.64222789	     -7.49999987	     82.60990690	    -12.85905234	     -2.59133198	     91.68263324	      1.60016382	     31.89531220	      5.16800410	     -7.49999987	    -26.27858654	     -0.41795830	      3.20103957	     61.36954297	    -15.01237112	     20.23347060	     89.46129868	     89.21373237	     61.71120489	     -4.62558046	     25.57870096	     82.11905509	     75.31097477
      2.48750000	    -26.14413127	      1.55107930	     -4.23412071	      0.18520125	      0.79788214	     -0.04624165	     80.00084630	    -13.79989672	     -3.14532318	     88.29482700	      1.54103544	     31.53966751	      8.09585623	     -7.49999987	     80.83580026	    -12.56600471	     -3.14125531	     90.28746541	      1.57581354	     31.46045983	      5.07329374	     -7.49999987	    -26.26828180	     -0.37988712	      3.09688547	     59.04258386	    -15.17210702	     19.82567439	     87.82950591	     86.94881771	     59.61993740	     -5.41780807	     24.81916935	     80.56550552	     73.19965076
      2.49166670	    -25.87247097	      1.70311762	     -4.32493676	      0.18971240	      0.80490129	     -0.04569060	     78.61383659	    -13.93549740	     -3.28174895	     87.01442090	      1.51868814	     31.41506662	      8.53733620	     -7.49999987	     79.29017836	    -12.48794540	     -3.58190187	     88.92888481	      1.55210184	     31.14182824	      4.89703211	     -7.49999987	    -26.10266808	     -0.32863209	      3.03744060	     56.16333066	    -15.40094421	     19.47526111	     86.98295471	     85.69518597	     57.25695537	     -6.36140714	     24.54822503	     79.52830866	     71.68918900
      2.49583330	    -25.34065438	      1.78940339	     -4.47793397	      0.19543553	      0.81385442	     -0.04600792	     76.84898155	    -13.93177566	     -3.50752705	     85.61820835	      1.49431964	     31.13644137	      8.34054032	     -7.49999987	     77.38154139	    -12.49541789	     -3.99599184	     87.59204590	      1.52876960	     30.86676500	      4.56489866	     -7.49999987	    -26.30507913	     -0.22199383	      3.00409335	     53.72663539	    -15.85990062	     19.45864271	     85.63647390	     84.25708257	     54.79031624	     -7.21360583	     24.44904010	     78.56586474	     70.68917897
